<svg xmlns="http://www.w3.org/2000/svg" viewBox="0 0 6496 3542" fill="currentColor">
<g transform="translate(0,3542) scale(0.1,-0.1)">
<path d="M61590 29340 c-2366 -78 -4396 -258 -6380 -566 -3188 -495 -6103
-1302 -8868 -2453 -560 -233 -1012 -436 -1687 -756 -201 -95 -1079 -536 -1265
-635 -1365 -726 -2235 -1228 -4175 -2410 -192 -117 -557 -339 -810 -493 -1903
-1159 -3096 -1863 -4145 -2444 -796 -441 -1158 -631 -1978 -1039 l-632 -316
-198 103 c-1356 702 -2558 1406 -4412 2584 -558 355 -1736 1117 -2535 1640
-1526 999 -2921 1855 -3965 2432 -508 281 -1164 625 -1520 795 -655 315 -729
350 -1135 530 -645 288 -1405 593 -2095 843 -381 137 -1125 384 -1540 509
-1598 483 -3222 853 -4855 1106 -2027 315 -4260 501 -6280 524 -435 5 -421 2
95 -19 1713 -69 3340 -218 4915 -451 1923 -284 3713 -683 5425 -1210 1720
-530 3349 -1186 4880 -1966 1375 -700 2602 -1436 4250 -2548 475 -321 420
-283 2135 -1475 2054 -1428 3088 -2122 4252 -2851 744 -467 1670 -1005 2376
-1382 167 -90 191 -100 217 -92 38 11 800 397 1095 555 950 508 1597 881 2775
1597 617 374 1860 1162 2690 1703 179 117 543 354 810 527 267 173 611 398
765 498 2553 1669 4211 2635 5960 3472 2887 1383 6057 2370 9590 2987 2035
356 4434 604 6665 691 151 6 300 12 330 13 118 7 -548 3 -750 -3z"/>
<path d="M2875 28954 c791 -39 1173 -65 1910 -129 2087 -182 4189 -553 6050
-1066 2974 -822 5571 -1974 8035 -3567 1095 -708 2360 -1643 3555 -2628 739
-609 990 -820 1770 -1483 3003 -2555 4301 -3606 5715 -4632 656 -476 1689
-1179 1731 -1179 36 0 800 472 1306 805 1480 977 2840 1982 5178 3830 303 239
570 451 1710 1359 2458 1957 3969 3040 5615 4023 2293 1369 4716 2415 7360
3176 1230 354 2510 649 3740 862 1909 330 3660 515 5775 609 l290 13 -190 2
c-171 1 -954 -20 -1245 -34 -63 -3 -218 -10 -345 -15 -1353 -60 -2983 -220
-4330 -426 -1639 -250 -3122 -573 -4610 -1005 -2967 -862 -5632 -2069 -8340
-3777 -1299 -819 -2333 -1549 -4828 -3409 -3429 -2556 -5019 -3656 -6836
-4730 l-243 -144 -202 128 c-595 376 -1207 785 -1806 1206 -986 694 -2632
1949 -4180 3187 -162 130 -383 306 -490 391 -107 85 -328 261 -490 390 -1398
1113 -2670 2072 -3621 2731 -184 128 -813 549 -944 633 -594 379 -1006 629
-1515 922 -832 479 -1946 1032 -2920 1450 -1839 790 -3899 1425 -5885 1817
-1580 311 -2909 487 -4655 616 -583 43 -1750 91 -2135 89 l-190 -2 260 -13z"/>
<path d="M54530 11760 c-438 -60 -851 -249 -1106 -504 -290 -292 -457 -730
-441 -1156 7 -190 43 -360 114 -540 91 -231 336 -517 586 -684 150 -100 289
-168 466 -226 236 -79 310 -91 576 -97 298 -6 453 10 694 73 279 72 387 120
614 271 l97 65 0 413 c0 433 7 541 41 612 24 50 95 104 174 134 34 13 55 26
55 36 0 13 -26 14 -222 9 -297 -9 -616 -9 -843 0 -242 9 -245 -1 -20 -74 138
-45 175 -61 232 -102 73 -54 117 -111 134 -174 7 -27 9 -154 6 -386 -4 -380
-10 -422 -67 -505 -126 -184 -461 -298 -829 -282 -368 15 -662 136 -892 366
-235 236 -353 493 -404 884 -17 135 -20 390 -5 522 79 691 453 1135 1035 1230
112 19 339 19 465 1 203 -29 412 -106 560 -206 80 -54 215 -189 263 -262 44
-67 82 -142 112 -218 12 -30 27 -55 34 -55 8 0 44 88 92 229 43 127 79 232 79
235 0 12 -153 104 -259 156 -183 90 -443 169 -726 221 -104 19 -509 28 -615
14z"/>
<path d="M60810 11764 c-130 -16 -245 -38 -321 -64 -259 -86 -464 -235 -587
-423 -84 -129 -122 -251 -123 -399 -1 -192 60 -337 195 -465 84 -80 208 -163
310 -208 118 -52 361 -118 686 -185 452 -94 578 -131 752 -221 89 -47 199
-146 241 -219 63 -110 75 -300 26 -444 -60 -180 -241 -336 -475 -409 -403
-127 -902 -91 -1301 93 -117 54 -249 149 -337 240 -110 116 -151 200 -192 398
-2 12 -8 22 -13 22 -10 0 -211 -502 -211 -526 0 -15 204 -121 325 -169 434
-173 924 -256 1339 -227 248 18 538 80 705 151 332 141 541 366 597 642 23
117 16 308 -17 404 -50 149 -187 300 -349 384 -198 103 -336 143 -1025 291
-132 29 -285 66 -340 82 -256 75 -434 210 -490 373 -10 28 -20 91 -22 140 -12
208 83 376 280 497 290 179 759 186 1205 18 301 -114 478 -287 515 -506 10
-56 14 -64 31 -62 15 2 39 51 112 231 l93 228 -67 31 c-310 141 -626 238 -927
284 -96 15 -534 27 -615 18z"/>
<path d="M10836 11749 c-278 -29 -572 -135 -801 -287 -418 -278 -667 -715
-692 -1217 -17 -346 70 -681 246 -942 274 -405 701 -660 1238 -737 165 -24
477 -22 624 4 298 51 611 195 839 385 290 242 485 565 557 921 25 127 25 454
-1 574 -43 203 -114 369 -236 555 -140 212 -403 441 -649 564 -161 81 -374
147 -569 176 -106 16 -420 18 -556 4z m494 -104 c328 -54 640 -263 806 -540
210 -350 279 -897 179 -1411 -58 -298 -182 -552 -352 -717 -154 -150 -338
-247 -553 -291 -149 -30 -301 -40 -428 -27 -665 69 -1026 455 -1124 1201 -18
141 -15 470 6 615 30 211 89 422 153 549 128 255 334 447 586 547 214 86 486
113 727 74z"/>
<path d="M36690 10500 c-250 -687 -458 -1250 -461 -1250 -6 0 -62 121 -272
580 -137 301 -312 707 -392 910 -42 107 -101 256 -130 330 -79 199 -99 315
-74 432 14 64 69 124 142 154 32 13 47 25 47 38 0 15 -5 17 -27 13 -16 -4
-140 -12 -278 -18 -241 -11 -599 -2 -647 16 -13 5 -18 2 -18 -11 0 -13 23 -32
71 -58 81 -46 161 -126 210 -211 19 -33 75 -157 124 -275 86 -209 217 -521
558 -1325 193 -455 387 -930 478 -1167 35 -92 66 -164 70 -160 3 4 210 567
459 1252 249 685 456 1251 460 1258 3 7 46 -93 96 -230 571 -1543 850 -2286
855 -2280 3 4 57 147 119 317 128 350 229 609 525 1340 113 281 238 591 276
690 87 221 212 469 290 573 68 93 165 185 237 227 33 19 52 37 52 49 0 16 -5
18 -38 12 -115 -18 -436 -27 -600 -16 -95 6 -187 13 -203 17 -24 5 -29 2 -29
-15 0 -13 11 -24 31 -33 57 -23 147 -97 172 -141 41 -70 52 -152 37 -271 -31
-251 -66 -354 -465 -1387 -114 -294 -214 -554 -223 -577 -9 -24 -19 -43 -22
-43 -3 0 -221 562 -484 1248 -263 686 -482 1250 -485 1254 -4 4 -211 -555
-461 -1242z"/>
<path d="M2840 11682 c0 -13 9 -22 28 -27 90 -22 194 -116 242 -216 52 -110
52 -129 47 -1067 -6 -1038 -17 -1201 -92 -1429 -40 -119 -67 -166 -126 -216
-40 -34 -131 -77 -164 -77 -8 0 -15 -6 -15 -14 0 -12 71 -14 445 -14 245 0
445 4 445 8 0 5 -28 24 -62 42 -84 45 -160 117 -190 180 -67 142 -102 357
-118 723 -12 269 -13 1778 -1 1773 9 -3 -6 14 1508 -1652 591 -649 1078 -1182
1081 -1184 4 -1 7 490 7 1090 1 1407 15 1704 87 1861 39 84 81 122 193 173
137 63 124 68 -147 58 -296 -11 -293 -10 -480 -1 -178 9 -198 1 -105 -43 31
-14 81 -53 123 -95 105 -104 152 -214 173 -410 17 -149 30 -606 37 -1245 l6
-605 -20 20 c-11 11 -498 551 -1082 1200 l-1062 1180 -71 -1 c-40 0 -148 -2
-242 -4 -93 -2 -232 0 -307 5 -134 7 -138 7 -138 -13z"/>
<path d="M22550 11681 c0 -12 6 -21 15 -21 44 0 145 -81 175 -139 68 -135 71
-183 71 -1104 0 -836 -11 -1253 -35 -1372 -40 -197 -137 -330 -281 -384 -27
-10 -51 -23 -53 -29 -4 -12 2786 -18 2845 -6 l30 6 86 291 c47 161 89 304 93
320 11 49 -24 32 -115 -56 -124 -119 -209 -179 -356 -252 -216 -107 -405 -160
-695 -197 -146 -18 -713 -18 -795 0 -87 20 -200 76 -228 115 -77 102 -94 308
-105 1257 -8 728 -2 1218 18 1300 29 128 83 197 187 242 90 39 71 49 -79 41
-176 -10 -503 -10 -655 0 -121 9 -123 8 -123 -12z"/>
<path d="M42480 11685 c0 -8 18 -26 39 -39 51 -33 87 -81 111 -148 45 -127 45
-140 44 -1203 0 -1036 -6 -1218 -41 -1365 -31 -130 -103 -230 -193 -269 -28
-12 -50 -26 -50 -31 0 -6 176 -10 480 -10 265 0 480 4 480 9 0 4 -30 26 -66
47 -104 61 -158 151 -183 304 -20 121 -31 432 -31 864 0 237 -5 555 -11 706
-17 447 9 890 60 1005 20 45 79 102 115 111 14 3 27 12 30 20 5 12 -14 13
-132 7 -176 -10 -441 -10 -559 0 -80 7 -93 6 -93 -8z"/>
<path d="M46500 11681 c0 -12 7 -21 15 -21 30 0 131 -59 174 -102 59 -59 98
-129 117 -215 14 -63 15 -173 11 -980 -3 -570 -9 -953 -16 -1028 -27 -287 -86
-493 -164 -577 -38 -41 -113 -85 -168 -99 -27 -7 -49 -18 -49 -25 0 -8 111
-11 445 -12 245 0 447 3 450 8 2 4 -24 22 -59 39 -138 70 -201 155 -245 326
-64 252 -73 439 -69 1478 l3 878 1085 -1192 c597 -656 1180 -1298 1297 -1426
l212 -233 -1 1023 c-2 1280 15 1734 68 1894 37 113 105 178 241 235 30 12 53
28 53 36 0 13 -31 14 -232 6 -295 -10 -283 -10 -475 -1 -101 5 -163 4 -163 -2
0 -5 30 -26 68 -47 185 -104 269 -272 292 -589 16 -224 31 -978 28 -1381 l-3
-372 -1079 1200 -1079 1199 -161 -8 c-198 -10 -200 -10 -418 0 -175 8 -178 8
-178 -12z"/>
<path d="M16090 11681 c0 -6 12 -16 28 -22 156 -59 204 -131 234 -352 18 -128
18 -1755 0 -2017 -19 -282 -58 -435 -136 -528 -33 -38 -100 -79 -159 -97 -24
-7 -43 -19 -45 -29 -3 -15 61 -16 785 -16 779 0 1264 10 1478 31 531 51 920
292 1021 635 22 76 22 226 -1 314 -21 83 -75 182 -128 239 -108 113 -302 228
-482 284 -110 34 -323 81 -490 108 l-140 23 109 18 c224 37 422 101 552 179
83 50 184 148 227 220 58 98 79 177 79 294 1 183 -41 287 -166 410 -88 88
-175 139 -326 195 -102 37 -333 84 -495 101 -168 16 -1945 26 -1945 10z m1772
-110 c144 -17 241 -45 353 -100 220 -109 306 -247 306 -491 0 -185 -48 -310
-164 -424 -114 -114 -238 -177 -422 -214 -175 -36 -283 -42 -740 -42 l-445 0
0 644 c0 592 1 645 17 648 41 8 1008 -10 1095 -21z m143 -1409 c228 -43 409
-114 537 -210 73 -55 172 -176 206 -252 61 -137 67 -325 17 -473 -52 -150
-188 -314 -321 -384 -92 -49 -227 -90 -349 -107 -227 -31 -927 -28 -1109 5
-150 27 -194 90 -215 312 -6 56 -13 335 -16 621 l-5 518 572 -5 c523 -4 583
-7 683 -25z"/>
<path d="M28521 11673 c0 -12 20 -28 57 -45 83 -39 126 -86 145 -155 37 -138
39 -186 38 -1193 -2 -941 -7 -1160 -30 -1260 -40 -175 -120 -292 -239 -350
-29 -14 -52 -31 -52 -39 0 -12 56 -13 378 -7 207 3 775 5 1262 4 487 -1 986
-3 1109 -3 l223 0 99 320 c54 176 99 326 99 333 0 25 -28 11 -55 -28 -42 -60
-191 -199 -273 -253 -91 -61 -206 -114 -347 -160 -285 -94 -566 -122 -1140
-115 -309 4 -346 6 -410 26 -122 36 -170 107 -195 290 -16 124 -39 792 -33
975 l6 169 586 -5 c634 -5 649 -6 843 -66 128 -41 244 -144 279 -251 12 -36
27 -52 41 -44 4 3 8 191 8 419 0 228 -4 416 -8 419 -14 8 -27 -7 -57 -62 -58
-108 -167 -191 -317 -243 -143 -49 -168 -51 -795 -56 l-593 -5 0 651 c0 613 1
651 18 651 9 0 205 0 435 0 650 0 868 -22 1140 -117 229 -79 353 -156 513
-320 61 -62 84 -80 91 -71 7 9 -16 105 -76 310 l-86 298 -1332 0 c-1263 0
-1333 -1 -1332 -17z"/>
<path d="M24570 4961 c-377 -82 -670 -360 -772 -731 -21 -76 -23 -106 -23
-285 1 -188 3 -205 28 -290 107 -355 366 -606 722 -702 92 -25 115 -27 295
-27 179 0 203 2 293 27 123 33 263 102 346 170 93 76 94 78 42 131 l-44 45
-37 -32 c-94 -85 -215 -149 -349 -184 -80 -21 -120 -25 -241 -25 -125 0 -159
3 -244 26 -490 128 -763 590 -646 1093 67 285 291 527 576 622 173 58 384 66
559 21 104 -26 244 -96 320 -159 l60 -50 47 47 48 46 -28 29 c-76 80 -262 180
-417 223 -95 26 -423 29 -535 5z"/>
<path d="M20772 4953 c-5 -10 -86 -184 -180 -388 -93 -203 -272 -593 -397
-865 -125 -272 -256 -557 -291 -633 l-63 -138 81 3 82 3 107 237 c154 343 149
333 182 332 15 -1 281 -2 591 -3 l563 -1 129 -282 130 -283 77 -3 c43 -2 77 1
77 6 0 8 -469 1033 -845 1847 l-83 180 -75 3 c-65 2 -77 0 -85 -15z m339 -710
c127 -279 242 -532 255 -560 l23 -53 -534 0 -534 0 15 35 c21 51 494 1096 506
1119 14 25 -9 70 269 -541z"/>
<path d="M28337 4963 c-3 -4 -213 -460 -467 -1013 -254 -553 -464 -1009 -467
-1013 -3 -4 32 -7 78 -5 l83 3 121 269 c67 148 126 275 131 282 8 12 105 14
598 15 324 0 590 -2 592 -4 3 -2 62 -130 132 -283 l128 -279 78 -3 c71 -3 78
-1 74 15 -3 10 -134 297 -291 638 -157 341 -364 791 -460 1000 l-174 380 -76
3 c-41 2 -78 -1 -80 -5z m347 -749 l263 -579 -263 -3 c-144 -1 -384 -1 -532 0
l-270 3 244 540 c286 635 283 629 290 622 3 -2 124 -265 268 -583z"/>
<path d="M31550 3949 l0 -1021 493 5 c404 4 505 7 567 21 328 71 593 263 719
521 85 174 116 322 108 515 -7 175 -38 303 -102 430 -118 233 -317 401 -581
489 -169 57 -220 61 -735 61 l-469 0 0 -1021z m1030 868 c343 -70 594 -296
682 -613 18 -66 22 -107 22 -249 1 -201 -11 -258 -84 -410 -86 -178 -219 -307
-396 -385 -194 -85 -293 -97 -786 -92 l-318 3 0 885 0 886 403 -5 c306 -4 420
-9 477 -20z"/>
<path d="M35710 3950 l0 -1020 700 0 700 0 0 70 0 69 -617 0 c-340 1 -621 1
-625 1 -5 0 -8 187 -8 415 l0 415 540 0 540 0 0 65 0 65 -540 0 -540 0 0 405
0 405 605 0 605 0 0 65 0 65 -680 0 -680 0 0 -1020z"/>
<path d="M39410 3950 l0 -1020 70 0 70 0 1 808 c2 972 1 922 8 922 3 -1 69
-110 146 -243 76 -133 267 -462 423 -730 l284 -488 36 3 36 3 426 735 425 734
3 -872 2 -872 70 0 70 0 0 1020 0 1021 -62 -3 -62 -3 -269 -465 c-148 -256
-348 -602 -445 -770 -96 -168 -180 -311 -186 -317 -12 -14 21 -69 -571 955
l-349 602 -63 0 -63 0 0 -1020z"/>
<path d="M43622 4948 c8 -13 193 -314 411 -669 l397 -646 0 -352 0 -352 73 3
72 3 3 352 2 353 401 652 c221 359 406 659 411 666 8 9 -7 12 -69 12 l-80 0
-130 -212 c-72 -117 -237 -387 -368 -600 l-237 -388 -201 328 c-111 180 -276
449 -367 597 l-165 270 -84 3 -84 3 15 -23z"/>
</g>
</svg>